<?xml version="1.0" standalone="no"?>
<!DOCTYPE svg PUBLIC "-//W3C//DTD SVG 20010904//EN"
 "http://www.w3.org/TR/2001/REC-SVG-20010904/DTD/svg10.dtd">
<svg version="1.0" xmlns="http://www.w3.org/2000/svg"
 width="24.000000pt" height="24.000000pt" viewBox="0 0 24.000000 24.000000"
 preserveAspectRatio="xMidYMid meet">

<g transform="translate(0.000000,24.000000) scale(0.100000,-0.100000)"
fill="#000000" stroke="none">
<path d="M85 180 c-16 -16 -37 -30 -47 -30 -13 0 -18 -8 -18 -30 0 -22 5 -30
17 -30 9 0 32 -14 50 -32 l33 -32 0 92 c0 51 -1 92 -3 92 -2 0 -16 -13 -32
-30z"/>
<path d="M140 202 c0 -5 14 -18 30 -30 41 -31 41 -73 0 -104 -16 -12 -30 -25
-30 -30 0 -16 22 -7 51 21 39 40 39 82 0 122 -29 28 -51 37 -51 21z"/>
<path d="M140 166 c0 -3 6 -15 12 -26 10 -16 10 -24 0 -40 -18 -29 -15 -36 8
-15 11 10 20 26 20 35 0 9 -9 25 -20 35 -11 10 -20 15 -20 11z"/>
</g>
</svg>
